<svg width="857" height="1072" viewBox="0 0 857 1072" fill="none" xmlns="http://www.w3.org/2000/svg">
<path d="M535.647 0C514.759 13.1342 507.018 30.2897 498.745 50.0998C490.311 70.295 481.44 93.0615 458 114.037C460.657 118.78 466.649 123.374 475.234 127.279C479.94 123.211 484.661 118.652 489.149 114.079L474.927 116.917L473.385 109.226C483.251 106.914 493.724 105.168 502.813 103.354C503.468 98.0177 504.444 93.6653 506.018 88.957C523.28 85.0224 542.283 78.0961 558 77.9327C579.58 79.8898 593.939 84.3851 610.171 89.0106C611.41 93.8357 612.392 99.0341 612.908 103.298C622.292 104.558 632.514 107.211 642.615 109.226L641.073 116.917L626.851 114.079C631.339 118.652 636.06 123.211 640.766 127.28C649.351 123.374 655.343 118.78 658 114.037C634.56 93.0619 625.689 70.295 617.255 50.0998C608.982 30.2897 601.241 13.1342 580.353 0C575.571 7.66131 567.184 19.235 558 19.4018C547.374 18.1353 540.748 8.32789 535.647 0H535.647ZM520.881 20.7088H528.742V28.0456L541.508 34.9924C545.272 29.2803 551.131 25.5012 558 25.5012C564.869 25.5012 570.728 29.2803 574.492 34.9924L587.258 28.0456V20.7088H595.119V27.2439H601.669V35.086H590.734L577.783 42.1344C578.974 46.6645 579.264 50.8722 578.562 55.1566L600.924 67.3258H610.403V75.168H603.852V81.703H595.992V73.5743L576.144 62.7735C572.592 70.0754 565.975 75.168 558 75.168C550.025 75.168 543.408 70.0754 539.856 62.7731L520.008 73.5747V81.7035H512.148V75.1684H505.597V67.3263H515.076L537.439 55.1571C536.731 50.7903 537.082 46.062 538.217 42.1348L525.265 35.0865H514.331V27.2444H520.881V20.7088ZM558 33.3434C551.208 33.3434 544.899 40.5067 544.899 50.3346C544.899 60.1625 551.208 67.3258 558 67.3258C564.792 67.3258 571.101 60.1625 571.101 50.3346C571.101 40.5067 564.792 33.3434 558 33.3434ZM547.083 43.3638H554.943V50.3346H547.083V43.3638ZM561.057 43.3638H568.917V50.3346H561.057V43.3638ZM551.013 53.3843H564.987V61.2264H551.013V53.3843ZM512.291 95.3287C511.754 97.3014 511.331 99.5007 511.005 101.868C544.969 94.6857 570.104 94.5271 604.734 101.831C604.42 99.6092 604.037 97.4239 603.567 95.2891C567.967 82.7304 547.938 82.8036 512.291 95.3287ZM510.299 109.89C510.114 114.011 510.152 118.463 510.376 123.099C512.452 123.116 514.457 123.113 516.414 123.095C519.292 117.45 539.908 112.686 549.425 120.309C562.973 117.685 572.892 113.19 582.715 106.705C557.904 102.276 529.629 107.135 510.299 109.89ZM552.605 127.488C551.399 139.735 542.967 147.925 530.052 147.925C522.449 147.925 517.804 141.243 516.476 130.925C514.661 130.945 512.818 130.956 510.914 130.944C512.336 144.78 514.857 159.604 517.555 171.815C523.158 171.347 530.82 168.38 537.75 164.539C544.378 160.865 550.486 156.413 553.933 153.334C550.819 153.066 547.757 152.513 544.757 151.713L546.788 144.138C554.087 146.086 561.393 146.336 569.161 144.151L571.293 151.699C568.285 152.545 565.202 153.098 562.087 153.351C565.537 156.429 571.635 160.872 578.25 164.539C585.204 168.393 592.896 171.368 598.503 171.821C603.084 151.94 606.816 129.757 605.55 109.868L595.981 108.505C588.018 112.853 569.59 123.873 552.605 127.488ZM613.583 111.432C613.777 115.269 613.816 119.148 613.695 123.055C617.01 126.976 620.832 130.867 625.155 134.736C623.831 133.997 622.334 133.548 620.713 133.548C612.934 134.445 609.691 141.512 609.627 147.925C609.876 154.894 613.946 162.151 620.713 162.303C621.464 162.303 622.187 162.202 622.881 162.026C625.186 171.21 628.798 177.859 636.125 183.533C626.771 190.334 608.378 190.985 598.558 189.863C596.254 192.164 593.884 194.399 591.451 196.565C611.874 199.109 639.59 199.228 646.946 181.369C638.33 176.39 632.417 168.114 630.649 160.958C642.577 163.586 652.579 156.659 652.761 145.827C637.885 140.955 620.883 117.992 613.583 111.432ZM502.293 111.456C489.396 125.366 476.068 137.294 461 147.316C469.814 156.897 484.348 157.902 493.837 155.314C482.283 173.093 473.729 180.674 458.303 190.935C479.807 197.046 505.572 201.307 524.676 196.679C522.291 194.56 519.967 192.373 517.707 190.122C503.875 191.848 488.983 190.912 476.106 188.117C492.457 175.397 499.261 162.354 505.403 150.109C505.002 147.56 504.632 145.007 504.293 142.449L500.347 144.418C490.131 149.514 480.466 150.174 474.268 147.776C485.961 139.566 495.367 131.298 502.445 122.888C502.246 118.952 502.194 115.134 502.294 111.456H502.293ZM592.777 120.042L598.334 125.588C595.538 128.378 592.135 130.213 588.568 131.421V138.776H574.594V133.659C571.885 133.751 569.462 133.707 567.607 133.707V125.865C574.594 125.865 587.642 125.164 592.777 120.042ZM628.534 137.664C633.302 141.683 638.608 145.682 644.461 149.668C641.723 154.552 634.99 154.162 631.116 153C632.442 147.931 631.334 141.469 628.534 137.664ZM620.713 141.39C623.161 142.223 623.916 145.724 623.94 147.925C623.75 149.694 623.264 154.404 620.713 154.46C618.267 153.627 617.511 150.126 617.487 147.925C617.677 146.156 618.163 141.447 620.713 141.39ZM558 162.351C555.262 166.09 551.827 169.599 548.009 172.752C551.919 171.351 554.83 170.556 558.01 170.564C561.203 170.573 564.109 171.384 568.031 172.785C564.197 169.624 560.747 166.103 558 162.351ZM572.747 176.361L570.598 182.095C565.271 180.108 562.201 179.015 559.932 178.602L574.231 200C580.693 195.72 586.335 190.854 591.731 185.581C584.447 183.201 578.195 180.161 572.747 176.362V176.361ZM543.244 176.367C537.288 180.206 530.371 183.946 524.27 185.581C529.994 191.084 535.497 195.89 541.769 200L556.079 178.586C553.814 178.983 550.758 180.069 545.419 182.089L543.244 176.367Z" fill="#006CA9"/>
<path d="M134.295 431.344C143.632 431.344 151.524 437.141 153.731 444.918C153.873 445.441 153.88 445.986 153.751 446.512C153.622 447.038 153.361 447.53 152.988 447.952C152.615 448.373 152.139 448.712 151.597 448.944C151.056 449.175 150.462 449.292 149.862 449.286H143.709C144.237 447.578 144.316 445.782 143.94 444.042C143.565 442.301 142.745 440.662 141.546 439.252C140.346 437.843 138.799 436.702 137.026 435.919C135.253 435.136 133.302 434.733 131.326 434.739C129.644 434.732 127.978 435.024 126.424 435.6C124.869 436.175 123.458 437.022 122.271 438.091C121.085 439.16 120.147 440.43 119.512 441.827C118.877 443.224 118.558 444.721 118.573 446.229C118.573 447.313 118.727 448.334 119.035 449.286H117.889C117.405 449.289 116.927 449.197 116.488 449.015C116.049 448.833 115.66 448.566 115.348 448.234C115.037 447.902 114.811 447.513 114.686 447.093C114.562 446.674 114.542 446.235 114.628 445.808C115.527 441.725 117.981 438.049 121.569 435.41C125.157 432.771 129.656 431.334 134.295 431.344ZM46.281 444.918C47.3927 440.957 49.9735 437.454 53.5991 434.983C57.2247 432.513 61.6793 431.223 66.2304 431.326C70.7815 431.429 75.1581 432.918 78.6406 435.549C82.1231 438.18 84.5042 441.795 85.3923 445.802C85.4796 446.23 85.4603 446.67 85.336 447.09C85.2116 447.511 84.9851 447.902 84.6728 448.235C84.3604 448.568 83.9699 448.835 83.5292 449.017C83.0885 449.198 82.6085 449.291 82.1234 449.286H80.9851C81.2927 448.334 81.4389 447.313 81.4389 446.229C81.4389 439.839 75.7472 434.739 68.6787 434.739C66.7031 434.734 64.7529 435.138 62.9807 435.922C61.2086 436.705 59.6626 437.846 58.464 439.255C57.2653 440.664 56.4465 442.303 56.0716 444.043C55.6967 445.784 55.7759 447.578 56.3031 449.286H50.1499C49.55 449.292 48.9565 449.175 48.4148 448.944C47.8732 448.712 47.3975 448.373 47.0243 447.952C46.6511 447.53 46.3901 447.038 46.2613 446.512C46.1325 445.986 46.1392 445.441 46.281 444.918Z" fill="#006CA9"/>
<path d="M123.965 446.23C123.964 444.939 124.393 443.678 125.196 442.607C125.526 443.366 126.349 443.904 127.303 443.904C127.791 443.9 128.265 443.756 128.656 443.495C129.048 443.234 129.337 442.868 129.482 442.45C129.627 442.033 129.621 441.584 129.465 441.17C129.308 440.755 129.009 440.396 128.611 440.143C129.996 439.655 131.514 439.559 132.962 439.868C134.409 440.177 135.717 440.877 136.708 441.873C137.699 442.869 138.326 444.113 138.505 445.439C138.684 446.764 138.407 448.107 137.71 449.287H124.811C124.265 448.342 123.975 447.294 123.965 446.23ZM68.6786 439.701C69.9353 439.698 71.1715 439.987 72.267 440.54C73.3625 441.092 74.28 441.89 74.9304 442.855C75.5807 443.82 75.9417 444.919 75.9784 446.046C76.015 447.173 75.726 448.29 75.1394 449.287H62.2254C61.6842 448.341 61.3996 447.293 61.3947 446.23C61.3947 445.043 61.7485 443.925 62.3715 442.966C62.6369 443.341 63.0318 443.628 63.4959 443.783C63.9601 443.937 64.468 443.952 64.9421 443.824C65.4162 443.695 65.8306 443.432 66.1219 443.072C66.4133 442.713 66.5656 442.278 66.5557 441.834C66.5563 441.534 66.4845 441.237 66.345 440.964C66.2056 440.691 66.002 440.449 65.7481 440.253C66.6718 439.889 67.6697 439.701 68.6786 439.701ZM50.7805 420.993L45.881 415.714C44.3133 416.872 43.3228 418.542 43.1273 420.356C43.0306 421.254 43.1319 422.16 43.4255 423.023C43.7192 423.886 44.1994 424.689 44.8388 425.385C45.4781 426.082 46.2641 426.658 47.1519 427.082C48.0396 427.506 49.0118 427.769 50.0127 427.856C52.0343 428.031 54.0507 427.479 55.6184 426.32L55.6415 426.3L55.7261 426.244C55.8722 426.148 56.1337 425.982 56.5106 425.761C57.2798 425.347 58.4643 424.747 60.0333 424.188C64.2933 422.699 68.9225 422.27 73.4319 422.946C75.4371 423.23 77.4858 422.787 79.1273 421.715C80.7688 420.644 81.8686 419.031 82.1848 417.232C82.501 415.433 82.0077 413.595 80.8133 412.122C79.619 410.649 77.8215 409.662 75.8163 409.379C68.6069 408.319 61.2124 409.022 54.4108 411.414C52.3157 412.152 50.2999 413.06 48.3884 414.126C47.6235 414.555 46.8818 415.015 46.1656 415.507L45.9963 415.631L45.9271 415.679L45.904 415.7L45.8887 415.707C45.8887 415.707 45.881 415.714 50.7805 420.993ZM153.354 415.714C154.837 416.894 155.752 418.545 155.907 420.318C156.062 422.091 155.445 423.849 154.185 425.223C152.925 426.596 151.121 427.478 149.151 427.683C147.182 427.887 145.201 427.399 143.624 426.32L143.517 426.244C142.171 425.417 140.727 424.727 139.21 424.188C134.95 422.699 130.32 422.27 125.811 422.946C124.818 423.086 123.804 423.05 122.827 422.839C121.85 422.628 120.928 422.246 120.116 421.715C119.303 421.185 118.614 420.516 118.09 419.746C117.565 418.977 117.215 418.123 117.058 417.232C116.901 416.341 116.942 415.431 117.177 414.554C117.413 413.678 117.838 412.851 118.43 412.122C119.021 411.393 119.767 410.775 120.624 410.304C121.481 409.834 122.434 409.519 123.427 409.379C130.636 408.318 138.031 409.022 144.832 411.414C147.401 412.325 149.424 413.326 150.854 414.126C151.619 414.555 152.361 415.015 153.077 415.507L153.247 415.631L153.316 415.679L153.339 415.7L153.354 415.714ZM100.006 492.308C93.9374 492.308 88.238 491.155 83.4539 489.133C81.8156 488.464 80.0543 489.961 81.0849 491.155C85.0845 496.055 92.0607 499.319 100.006 499.319C107.951 499.319 114.928 496.055 118.927 491.155C119.958 489.913 118.196 488.464 116.558 489.14C111.367 491.273 105.716 492.357 100.006 492.314" fill="#006CA9"/>
<path d="M169.129 366.324L175.283 369.07C186.051 373.88 192.204 384.86 189.896 396.529L183.751 424.948C189.092 427.513 193.47 431.436 196.336 436.224C199.203 441.012 200.431 446.453 199.866 451.865C199.301 457.277 196.968 462.418 193.16 466.646C189.352 470.873 184.238 473.998 178.459 475.628L177.09 493.916L177.075 494.075C174.421 520.354 151.193 539 123.373 539H77.316C48.6421 539 26.2598 520.285 23.6063 494.075L23.5909 493.909L22.2603 475.822C16.3854 474.304 11.1474 471.251 7.21428 467.052C3.28117 462.853 0.831196 457.697 0.176821 452.244C-0.477554 446.79 0.693322 441.285 3.54012 436.431C6.38692 431.577 10.7806 427.594 16.1609 424.989L9.85387 395.839C8.31557 384.86 14.4688 373.88 25.2446 369.07L31.3977 366.324C35.2435 364.267 39.0892 361.521 42.935 358.774L56.7874 345.731C65.248 338.872 77.5621 336.815 88.3302 341.618C96.1154 343.675 104.396 343.675 112.182 341.618C123.719 338.189 136.802 340.928 146.039 348.485L157.577 358.774C160.653 362.211 164.499 364.267 169.114 366.324M167.106 421.159C167.428 417.468 167.332 413.757 166.822 410.083C164.538 407.461 162.953 404.051 162.953 400.642V396.736C160.534 391.366 157.157 386.386 152.954 381.989C142.724 379.953 124.934 377.31 100.637 377.31C75.9469 377.31 57.9795 380.036 47.8268 382.086C43.8854 386.322 40.6803 391.068 38.3201 396.164V400.649C38.3201 404.355 37.0664 408.061 34.0129 410.766C33.539 414.222 33.4129 417.71 33.636 421.187L34.1744 428.481C34.2705 429.768 33.9625 431.054 33.2855 432.192C32.6084 433.33 31.5894 434.275 30.344 434.92L49.242 485.172C50.0112 488.623 54.6261 489.313 56.9335 487.243L63.0867 482.412C68.4707 478.271 74.6239 476.891 80.7771 476.891H94.368C93.1492 476.903 91.9447 476.655 90.8527 476.17C89.7608 475.684 88.8123 474.973 88.0849 474.096C87.3574 473.218 86.8715 472.199 86.6668 471.121C86.4622 470.043 86.5446 468.936 86.9073 467.892L94.5218 446.016C96.237 441.179 103.852 441.179 105.49 446.016L113.104 467.892C113.46 468.936 113.537 470.04 113.33 471.116C113.122 472.192 112.636 473.208 111.91 474.084C111.184 474.96 110.238 475.67 109.15 476.158C108.061 476.646 106.86 476.897 105.644 476.891H119.235C126.157 476.891 132.31 478.271 136.925 482.412L143.078 487.243C145.386 489.313 150.001 487.933 150.77 485.172L170.252 434.982C169.045 434.326 168.062 433.385 167.41 432.262C166.759 431.138 166.465 429.875 166.56 428.612L167.114 421.221L167.106 421.159ZM15.3994 449.287C15.398 452.631 16.7493 455.861 19.2023 458.378C21.6553 460.895 25.0431 462.527 28.7365 462.972L27.3289 441.475L27.3597 442.407C24.4908 442.407 21.991 441.124 20.3297 439.164C18.7736 440.454 17.5323 442.02 16.6837 443.763C15.8352 445.505 15.398 447.386 15.3994 449.287ZM173.19 442.386L171.621 462.924C174.453 462.524 177.104 461.423 179.276 459.744C181.447 458.065 183.052 455.875 183.911 453.421C184.769 450.967 184.845 448.346 184.132 445.855C183.419 443.364 181.944 441.102 179.874 439.322C178.444 441.234 176.167 442.359 173.19 442.386ZM76.9314 494.144V504.495C76.9314 510.706 83.0846 516.227 90.7761 516.227C92.3144 516.227 93.0835 514.847 93.0835 514.156V513.466C93.0835 510.016 96.1601 507.256 100.006 507.256C103.852 507.256 106.928 510.016 106.928 513.466V514.156C106.928 515.537 108.467 516.227 109.236 516.227C116.158 516.227 123.08 511.396 123.08 504.495V494.144C123.08 490.693 120.419 487.933 115.389 487.933H84.6229C79.7465 487.933 76.9314 490.693 76.9314 494.144Z" fill="#006CA9"/>
<path d="M436.295 431.344C445.632 431.344 453.524 437.141 455.731 444.918C455.873 445.441 455.88 445.986 455.751 446.512C455.622 447.038 455.361 447.53 454.988 447.952C454.615 448.373 454.139 448.712 453.597 448.944C453.056 449.175 452.462 449.292 451.862 449.286H445.709C446.237 447.578 446.316 445.782 445.94 444.042C445.565 442.301 444.745 440.662 443.546 439.252C442.346 437.843 440.799 436.702 439.026 435.919C437.253 435.136 435.302 434.733 433.326 434.739C431.644 434.732 429.978 435.024 428.424 435.6C426.869 436.175 425.458 437.022 424.271 438.091C423.085 439.16 422.147 440.43 421.512 441.827C420.877 443.224 420.558 444.721 420.573 446.229C420.573 447.313 420.727 448.334 421.035 449.286H419.889C419.405 449.289 418.927 449.197 418.488 449.015C418.049 448.833 417.66 448.566 417.348 448.234C417.037 447.902 416.811 447.513 416.686 447.093C416.562 446.674 416.542 446.235 416.628 445.808C417.527 441.725 419.981 438.049 423.569 435.41C427.157 432.771 431.656 431.334 436.295 431.344ZM348.281 444.918C349.393 440.957 351.973 437.454 355.599 434.983C359.225 432.513 363.679 431.223 368.23 431.326C372.781 431.429 377.158 432.918 380.641 435.549C384.123 438.18 386.504 441.795 387.392 445.802C387.48 446.23 387.46 446.67 387.336 447.09C387.212 447.511 386.985 447.902 386.673 448.235C386.36 448.568 385.97 448.835 385.529 449.017C385.089 449.198 384.608 449.291 384.123 449.286H382.985C383.293 448.334 383.439 447.313 383.439 446.229C383.439 439.839 377.747 434.739 370.679 434.739C368.703 434.734 366.753 435.138 364.981 435.922C363.209 436.705 361.663 437.846 360.464 439.255C359.265 440.664 358.446 442.303 358.072 444.043C357.697 445.784 357.776 447.578 358.303 449.286H352.15C351.55 449.292 350.957 449.175 350.415 448.944C349.873 448.712 349.398 448.373 349.024 447.952C348.651 447.53 348.39 447.038 348.261 446.512C348.132 445.986 348.139 445.441 348.281 444.918Z" fill="#737370"/>
<path d="M425.965 446.23C425.964 444.939 426.393 443.678 427.196 442.607C427.526 443.366 428.349 443.904 429.303 443.904C429.791 443.9 430.265 443.756 430.656 443.495C431.048 443.234 431.337 442.868 431.482 442.45C431.627 442.033 431.621 441.584 431.465 441.17C431.308 440.755 431.009 440.396 430.611 440.143C431.996 439.655 433.514 439.559 434.962 439.868C436.409 440.177 437.717 440.877 438.708 441.873C439.699 442.869 440.326 444.113 440.505 445.439C440.684 446.764 440.407 448.107 439.71 449.287H426.811C426.265 448.342 425.975 447.294 425.965 446.23ZM370.679 439.701C371.935 439.698 373.172 439.987 374.267 440.54C375.363 441.092 376.28 441.89 376.93 442.855C377.581 443.82 377.942 444.919 377.978 446.046C378.015 447.173 377.726 448.29 377.139 449.287H364.225C363.684 448.341 363.4 447.293 363.395 446.23C363.395 445.043 363.749 443.925 364.372 442.966C364.637 443.341 365.032 443.628 365.496 443.783C365.96 443.937 366.468 443.952 366.942 443.824C367.416 443.695 367.831 443.432 368.122 443.072C368.413 442.713 368.566 442.278 368.556 441.834C368.556 441.534 368.484 441.237 368.345 440.964C368.206 440.691 368.002 440.449 367.748 440.253C368.672 439.889 369.67 439.701 370.679 439.701ZM352.78 420.993L347.881 415.714C346.313 416.872 345.323 418.542 345.127 420.356C345.031 421.254 345.132 422.16 345.426 423.023C345.719 423.886 346.199 424.689 346.839 425.385C347.478 426.082 348.264 426.658 349.152 427.082C350.04 427.506 351.012 427.769 352.013 427.856C354.034 428.031 356.051 427.479 357.618 426.32L357.641 426.3L357.726 426.244C357.872 426.148 358.134 425.982 358.511 425.761C359.28 425.347 360.464 424.747 362.033 424.188C366.293 422.699 370.923 422.27 375.432 422.946C377.437 423.23 379.486 422.787 381.127 421.715C382.769 420.644 383.869 419.031 384.185 417.232C384.501 415.433 384.008 413.595 382.813 412.122C381.619 410.649 379.821 409.662 377.816 409.379C370.607 408.319 363.212 409.022 356.411 411.414C354.316 412.152 352.3 413.06 350.388 414.126C349.624 414.555 348.882 415.015 348.166 415.507L347.996 415.631L347.927 415.679L347.904 415.7L347.889 415.707C347.889 415.707 347.881 415.714 352.78 420.993ZM455.354 415.714C456.837 416.894 457.752 418.545 457.907 420.318C458.062 422.091 457.445 423.849 456.185 425.223C454.925 426.596 453.121 427.478 451.151 427.683C449.182 427.887 447.201 427.399 445.624 426.32L445.517 426.244C444.171 425.417 442.727 424.727 441.21 424.188C436.95 422.699 432.32 422.27 427.811 422.946C426.818 423.086 425.804 423.05 424.827 422.839C423.85 422.628 422.928 422.246 422.116 421.715C421.303 421.185 420.614 420.516 420.09 419.746C419.565 418.977 419.215 418.123 419.058 417.232C418.901 416.341 418.942 415.431 419.177 414.554C419.413 413.678 419.838 412.851 420.43 412.122C421.021 411.393 421.767 410.775 422.624 410.304C423.481 409.834 424.434 409.519 425.427 409.379C432.636 408.318 440.031 409.022 446.832 411.414C449.401 412.325 451.424 413.326 452.854 414.126C453.619 414.555 454.361 415.015 455.077 415.507L455.247 415.631L455.316 415.679L455.339 415.7L455.354 415.714ZM402.006 492.308C395.937 492.308 390.238 491.155 385.454 489.133C383.816 488.464 382.054 489.961 383.085 491.155C387.085 496.055 394.061 499.319 402.006 499.319C409.951 499.319 416.928 496.055 420.927 491.155C421.958 489.913 420.196 488.464 418.558 489.14C413.367 491.273 407.716 492.357 402.006 492.314" fill="#737370"/>
<path d="M471.129 366.324L477.283 369.07C488.051 373.88 494.204 384.86 491.896 396.529L485.751 424.948C491.092 427.513 495.47 431.436 498.336 436.224C501.203 441.012 502.431 446.453 501.866 451.865C501.301 457.277 498.968 462.418 495.16 466.646C491.352 470.873 486.238 473.998 480.459 475.628L479.09 493.916L479.075 494.075C476.421 520.354 453.193 539 425.373 539H379.316C350.642 539 328.26 520.285 325.606 494.075L325.591 493.909L324.26 475.822C318.385 474.304 313.147 471.251 309.214 467.052C305.281 462.853 302.831 457.697 302.177 452.244C301.522 446.79 302.693 441.285 305.54 436.431C308.387 431.577 312.781 427.594 318.161 424.989L311.854 395.839C310.316 384.86 316.469 373.88 327.245 369.07L333.398 366.324C337.243 364.267 341.089 361.521 344.935 358.774L358.787 345.731C367.248 338.872 379.562 336.815 390.33 341.618C398.115 343.675 406.396 343.675 414.182 341.618C425.719 338.189 438.802 340.928 448.039 348.485L459.577 358.774C462.653 362.211 466.499 364.267 471.114 366.324M469.106 421.159C469.428 417.468 469.332 413.757 468.822 410.083C466.538 407.461 464.953 404.051 464.953 400.642V396.736C462.534 391.366 459.157 386.386 454.954 381.989C444.724 379.953 426.934 377.31 402.637 377.31C377.947 377.31 359.98 380.036 349.827 382.086C345.885 386.322 342.68 391.068 340.32 396.164V400.649C340.32 404.355 339.066 408.061 336.013 410.766C335.539 414.222 335.413 417.71 335.636 421.187L336.174 428.481C336.27 429.768 335.963 431.054 335.285 432.192C334.608 433.33 333.589 434.275 332.344 434.92L351.242 485.172C352.011 488.623 356.626 489.313 358.934 487.243L365.087 482.412C370.471 478.271 376.624 476.891 382.777 476.891H396.368C395.149 476.903 393.945 476.655 392.853 476.17C391.761 475.684 390.812 474.973 390.085 474.096C389.357 473.218 388.872 472.199 388.667 471.121C388.462 470.043 388.545 468.936 388.907 467.892L396.522 446.016C398.237 441.179 405.852 441.179 407.49 446.016L415.104 467.892C415.46 468.936 415.537 470.04 415.33 471.116C415.122 472.192 414.636 473.208 413.91 474.084C413.184 474.96 412.238 475.67 411.15 476.158C410.061 476.646 408.86 476.897 407.644 476.891H421.235C428.157 476.891 434.31 478.271 438.925 482.412L445.078 487.243C447.386 489.313 452.001 487.933 452.77 485.172L472.252 434.982C471.045 434.326 470.062 433.385 469.41 432.262C468.759 431.138 468.465 429.875 468.56 428.612L469.114 421.221L469.106 421.159ZM317.399 449.287C317.398 452.631 318.749 455.861 321.202 458.378C323.655 460.895 327.043 462.527 330.736 462.972L329.329 441.475L329.36 442.407C326.491 442.407 323.991 441.124 322.33 439.164C320.774 440.454 319.532 442.02 318.684 443.763C317.835 445.505 317.398 447.386 317.399 449.287ZM475.19 442.386L473.621 462.924C476.453 462.524 479.104 461.423 481.276 459.744C483.447 458.065 485.052 455.875 485.911 453.421C486.769 450.967 486.845 448.346 486.132 445.855C485.419 443.364 483.944 441.102 481.874 439.322C480.444 441.234 478.167 442.359 475.19 442.386ZM378.931 494.144V504.495C378.931 510.706 385.085 516.227 392.776 516.227C394.314 516.227 395.084 514.847 395.084 514.156V513.466C395.084 510.016 398.16 507.256 402.006 507.256C405.852 507.256 408.928 510.016 408.928 513.466V514.156C408.928 515.537 410.467 516.227 411.236 516.227C418.158 516.227 425.08 511.396 425.08 504.495V494.144C425.08 490.693 422.419 487.933 417.389 487.933H386.623C381.746 487.933 378.931 490.693 378.931 494.144Z" fill="#737370"/>
<path d="M738.295 431.344C747.632 431.344 755.524 437.141 757.731 444.918C757.873 445.441 757.88 445.986 757.751 446.512C757.622 447.038 757.361 447.53 756.988 447.952C756.615 448.373 756.139 448.712 755.597 448.944C755.056 449.175 754.462 449.292 753.862 449.286H747.709C748.237 447.578 748.316 445.782 747.94 444.042C747.565 442.301 746.745 440.662 745.546 439.252C744.346 437.843 742.799 436.702 741.026 435.919C739.253 435.136 737.302 434.733 735.326 434.739C733.644 434.732 731.978 435.024 730.424 435.6C728.869 436.175 727.458 437.022 726.271 438.091C725.085 439.16 724.147 440.43 723.512 441.827C722.877 443.224 722.558 444.721 722.573 446.229C722.573 447.313 722.727 448.334 723.035 449.286H721.889C721.405 449.289 720.927 449.197 720.488 449.015C720.049 448.833 719.66 448.566 719.348 448.234C719.037 447.902 718.811 447.513 718.686 447.093C718.562 446.674 718.542 446.235 718.628 445.808C719.527 441.725 721.981 438.049 725.569 435.41C729.157 432.771 733.656 431.334 738.295 431.344ZM650.281 444.918C651.393 440.957 653.973 437.454 657.599 434.983C661.225 432.513 665.679 431.223 670.23 431.326C674.781 431.429 679.158 432.918 682.641 435.549C686.123 438.18 688.504 441.795 689.392 445.802C689.48 446.23 689.46 446.67 689.336 447.09C689.212 447.511 688.985 447.902 688.673 448.235C688.36 448.568 687.97 448.835 687.529 449.017C687.089 449.198 686.608 449.291 686.123 449.286H684.985C685.293 448.334 685.439 447.313 685.439 446.229C685.439 439.839 679.747 434.739 672.679 434.739C670.703 434.734 668.753 435.138 666.981 435.922C665.209 436.705 663.663 437.846 662.464 439.255C661.265 440.664 660.446 442.303 660.072 444.043C659.697 445.784 659.776 447.578 660.303 449.286H654.15C653.55 449.292 652.957 449.175 652.415 448.944C651.873 448.712 651.398 448.373 651.024 447.952C650.651 447.53 650.39 447.038 650.261 446.512C650.132 445.986 650.139 445.441 650.281 444.918Z" fill="#737370"/>
<path d="M727.965 446.23C727.964 444.939 728.393 443.678 729.196 442.607C729.526 443.366 730.349 443.904 731.303 443.904C731.791 443.9 732.265 443.756 732.656 443.495C733.048 443.234 733.337 442.868 733.482 442.45C733.627 442.033 733.621 441.584 733.465 441.17C733.308 440.755 733.009 440.396 732.611 440.143C733.996 439.655 735.514 439.559 736.962 439.868C738.409 440.177 739.717 440.877 740.708 441.873C741.699 442.869 742.326 444.113 742.505 445.439C742.684 446.764 742.407 448.107 741.71 449.287H728.811C728.265 448.342 727.975 447.294 727.965 446.23ZM672.679 439.701C673.935 439.698 675.172 439.987 676.267 440.54C677.363 441.092 678.28 441.89 678.93 442.855C679.581 443.82 679.942 444.919 679.978 446.046C680.015 447.173 679.726 448.29 679.139 449.287H666.225C665.684 448.341 665.4 447.293 665.395 446.23C665.395 445.043 665.749 443.925 666.372 442.966C666.637 443.341 667.032 443.628 667.496 443.783C667.96 443.937 668.468 443.952 668.942 443.824C669.416 443.695 669.831 443.432 670.122 443.072C670.413 442.713 670.566 442.278 670.556 441.834C670.556 441.534 670.484 441.237 670.345 440.964C670.206 440.691 670.002 440.449 669.748 440.253C670.672 439.889 671.67 439.701 672.679 439.701ZM654.78 420.993L649.881 415.714C648.313 416.872 647.323 418.542 647.127 420.356C647.031 421.254 647.132 422.16 647.426 423.023C647.719 423.886 648.199 424.689 648.839 425.385C649.478 426.082 650.264 426.658 651.152 427.082C652.04 427.506 653.012 427.769 654.013 427.856C656.034 428.031 658.051 427.479 659.618 426.32L659.641 426.3L659.726 426.244C659.872 426.148 660.134 425.982 660.511 425.761C661.28 425.347 662.464 424.747 664.033 424.188C668.293 422.699 672.923 422.27 677.432 422.946C679.437 423.23 681.486 422.787 683.127 421.715C684.769 420.644 685.869 419.031 686.185 417.232C686.501 415.433 686.008 413.595 684.813 412.122C683.619 410.649 681.821 409.662 679.816 409.379C672.607 408.319 665.212 409.022 658.411 411.414C656.316 412.152 654.3 413.06 652.388 414.126C651.624 414.555 650.882 415.015 650.166 415.507L649.996 415.631L649.927 415.679L649.904 415.7L649.889 415.707C649.889 415.707 649.881 415.714 654.78 420.993ZM757.354 415.714C758.837 416.894 759.752 418.545 759.907 420.318C760.062 422.091 759.445 423.849 758.185 425.223C756.925 426.596 755.121 427.478 753.151 427.683C751.182 427.887 749.201 427.399 747.624 426.32L747.517 426.244C746.171 425.417 744.727 424.727 743.21 424.188C738.95 422.699 734.32 422.27 729.811 422.946C728.818 423.086 727.804 423.05 726.827 422.839C725.85 422.628 724.928 422.246 724.116 421.715C723.303 421.185 722.614 420.516 722.09 419.746C721.565 418.977 721.215 418.123 721.058 417.232C720.901 416.341 720.942 415.431 721.177 414.554C721.413 413.678 721.838 412.851 722.43 412.122C723.021 411.393 723.767 410.775 724.624 410.304C725.481 409.834 726.434 409.519 727.427 409.379C734.636 408.318 742.031 409.022 748.832 411.414C751.401 412.325 753.424 413.326 754.854 414.126C755.619 414.555 756.361 415.015 757.077 415.507L757.247 415.631L757.316 415.679L757.339 415.7L757.354 415.714ZM704.006 492.308C697.937 492.308 692.238 491.155 687.454 489.133C685.816 488.464 684.054 489.961 685.085 491.155C689.085 496.055 696.061 499.319 704.006 499.319C711.951 499.319 718.928 496.055 722.927 491.155C723.958 489.913 722.196 488.464 720.558 489.14C715.367 491.273 709.716 492.357 704.006 492.314" fill="#737370"/>
<path d="M773.129 366.324L779.283 369.07C790.051 373.88 796.204 384.86 793.896 396.529L787.751 424.948C793.092 427.513 797.47 431.436 800.336 436.224C803.203 441.012 804.431 446.453 803.866 451.865C803.301 457.277 800.968 462.418 797.16 466.646C793.352 470.873 788.238 473.998 782.459 475.628L781.09 493.916L781.075 494.075C778.421 520.354 755.193 539 727.373 539H681.316C652.642 539 630.26 520.285 627.606 494.075L627.591 493.909L626.26 475.822C620.385 474.304 615.147 471.251 611.214 467.052C607.281 462.853 604.831 457.697 604.177 452.244C603.522 446.79 604.693 441.285 607.54 436.431C610.387 431.577 614.781 427.594 620.161 424.989L613.854 395.839C612.316 384.86 618.469 373.88 629.245 369.07L635.398 366.324C639.243 364.267 643.089 361.521 646.935 358.774L660.787 345.731C669.248 338.872 681.562 336.815 692.33 341.618C700.115 343.675 708.396 343.675 716.182 341.618C727.719 338.189 740.802 340.928 750.039 348.485L761.577 358.774C764.653 362.211 768.499 364.267 773.114 366.324M771.106 421.159C771.428 417.468 771.332 413.757 770.822 410.083C768.538 407.461 766.953 404.051 766.953 400.642V396.736C764.534 391.366 761.157 386.386 756.954 381.989C746.724 379.953 728.934 377.31 704.637 377.31C679.947 377.31 661.98 380.036 651.827 382.086C647.885 386.322 644.68 391.068 642.32 396.164V400.649C642.32 404.355 641.066 408.061 638.013 410.766C637.539 414.222 637.413 417.71 637.636 421.187L638.174 428.481C638.27 429.768 637.963 431.054 637.285 432.192C636.608 433.33 635.589 434.275 634.344 434.92L653.242 485.172C654.011 488.623 658.626 489.313 660.934 487.243L667.087 482.412C672.471 478.271 678.624 476.891 684.777 476.891H698.368C697.149 476.903 695.945 476.655 694.853 476.17C693.761 475.684 692.812 474.973 692.085 474.096C691.357 473.218 690.872 472.199 690.667 471.121C690.462 470.043 690.545 468.936 690.907 467.892L698.522 446.016C700.237 441.179 707.852 441.179 709.49 446.016L717.104 467.892C717.46 468.936 717.537 470.04 717.33 471.116C717.122 472.192 716.636 473.208 715.91 474.084C715.184 474.96 714.238 475.67 713.15 476.158C712.061 476.646 710.86 476.897 709.644 476.891H723.235C730.157 476.891 736.31 478.271 740.925 482.412L747.078 487.243C749.386 489.313 754.001 487.933 754.77 485.172L774.252 434.982C773.045 434.326 772.062 433.385 771.41 432.262C770.759 431.138 770.465 429.875 770.56 428.612L771.114 421.221L771.106 421.159ZM619.399 449.287C619.398 452.631 620.749 455.861 623.202 458.378C625.655 460.895 629.043 462.527 632.736 462.972L631.329 441.475L631.36 442.407C628.491 442.407 625.991 441.124 624.33 439.164C622.774 440.454 621.532 442.02 620.684 443.763C619.835 445.505 619.398 447.386 619.399 449.287ZM777.19 442.386L775.621 462.924C778.453 462.524 781.104 461.423 783.276 459.744C785.447 458.065 787.052 455.875 787.911 453.421C788.769 450.967 788.845 448.346 788.132 445.855C787.419 443.364 785.944 441.102 783.874 439.322C782.444 441.234 780.167 442.359 777.19 442.386ZM680.931 494.144V504.495C680.931 510.706 687.085 516.227 694.776 516.227C696.314 516.227 697.084 514.847 697.084 514.156V513.466C697.084 510.016 700.16 507.256 704.006 507.256C707.852 507.256 710.928 510.016 710.928 513.466V514.156C710.928 515.537 712.467 516.227 713.236 516.227C720.158 516.227 727.08 511.396 727.08 504.495V494.144C727.08 490.693 724.419 487.933 719.389 487.933H688.623C683.746 487.933 680.931 490.693 680.931 494.144Z" fill="#737370"/>
<path d="M333.518 772C325.597 771.977 318.182 773.859 309.955 778.124H309.958C279.485 793.937 253.328 836.912 252.074 872.767L278.52 882.018C281.257 841.8 308.259 798.6 342.682 780.736H342.683C345.393 779.327 348.174 778.069 351.015 776.967L336.948 772.126C335.806 772.046 334.663 772.004 333.518 772ZM371.019 785.12C364.397 785.062 356.59 787.13 348 791.581L348.003 791.579C317.523 807.395 291.363 850.396 290.148 886.086L389.041 920.683C391.483 880.251 418.615 836.614 453.256 818.638H453.258L453.259 818.636C455.898 817.264 458.604 816.035 461.368 814.954L376.344 785.689C374.591 785.324 372.807 785.134 371.018 785.121L371.019 785.12ZM481.594 823.02C474.973 822.961 467.166 825.029 458.577 829.479L458.574 829.48C427.875 845.413 401.555 888.922 400.695 924.759L429.895 934.974C432.369 894.563 459.487 850.969 494.107 833.004C496.884 831.557 499.738 830.275 502.658 829.164L485.883 823.391C484.465 823.156 483.031 823.032 481.595 823.02L481.594 823.02ZM521.757 837.325C515.269 837.385 507.795 839.504 499.428 843.845C469.626 859.311 443.956 900.761 441.691 935.958L552 888.049C551.745 862.699 545.204 848.212 536.571 841.858C535.09 840.769 533.489 839.866 531.799 839.17L531.793 839.192L528.801 838.163C526.601 837.586 524.254 837.3 521.758 837.324L521.757 837.325ZM252.022 885.576L252 1007.41L278.287 1016.81V894.766L252.022 885.578V885.576ZM290.098 898.896V1021.04L388.862 1056.37V933.446L370.502 927.022V1004.63L306.64 982.483V904.683L290.098 898.896ZM551.87 901.29L441.948 949.03V1072L551.869 1024.24V901.289L551.87 901.29ZM318.452 908.816V973.764L358.692 987.72V922.892L318.452 908.815L318.452 908.816ZM338.236 927.529C344.369 927.529 349.341 932.641 349.341 938.947C349.341 943.067 347.212 946.667 344.028 948.675V967.215H332.217V948.535C329.16 946.501 327.131 942.971 327.131 938.947C327.131 932.641 332.103 927.529 338.236 927.529ZM400.672 937.578V1060.59L430.138 1071.13V947.886L400.671 937.578H400.672Z" fill="#006CA9"/>
<path d="M100.757 560.058C98.0276 559.639 95.4758 561.513 95.0577 564.243L88.243 608.724C87.8248 611.453 89.6986 614.005 92.4282 614.423C95.1578 614.842 97.7095 612.968 98.1277 610.238L104.185 570.7L143.724 576.757C146.453 577.175 149.005 575.301 149.423 572.572C149.842 569.842 147.968 567.29 145.238 566.872L100.757 560.058ZM256.03 769.041L104.03 562.041L95.9698 567.959L247.97 774.959L256.03 769.041Z" fill="#82D1F5"/>
<path d="M575.797 216.004C573.038 216.116 570.892 218.444 571.004 221.203L572.832 266.166C572.944 268.925 575.272 271.071 578.031 270.959C580.79 270.847 582.936 268.519 582.824 265.76L581.199 225.793L621.166 224.168C623.925 224.056 626.071 221.728 625.959 218.969C625.847 216.21 623.519 214.064 620.76 214.176L575.797 216.004ZM707.389 335.324L579.389 217.324L572.611 224.676L700.611 342.676L707.389 335.324Z" fill="#82D1F5"/>
<path d="M527 221.042C527.023 218.281 524.803 216.023 522.042 216L477.044 215.622C474.282 215.599 472.025 217.819 472.002 220.58C471.979 223.341 474.198 225.598 476.96 225.622L516.958 225.958L516.622 265.956C516.599 268.718 518.819 270.975 521.58 270.998C524.341 271.021 526.598 268.802 526.622 266.04L527 221.042ZM405.506 342.565L525.506 224.565L518.494 217.435L398.494 335.435L405.506 342.565Z" fill="#82D1F5"/>
<path d="M708.942 564.243C708.524 561.513 705.972 559.639 703.243 560.058L658.762 566.872C656.032 567.29 654.158 569.842 654.577 572.572C654.995 575.301 657.547 577.175 660.276 576.757L699.815 570.7L705.872 610.238C706.29 612.968 708.842 614.842 711.572 614.423C714.301 614.005 716.175 611.453 715.757 608.724L708.942 564.243ZM556.03 774.959L708.03 567.959L699.97 562.041L547.97 769.041L556.03 774.959Z" fill="#82D1F5"/>
<path d="M405.501 561.43C403.53 559.497 400.364 559.527 398.43 561.499L366.92 593.625C364.986 595.596 365.016 598.762 366.988 600.695C368.959 602.629 372.125 602.598 374.059 600.627L402.068 572.071L430.625 600.08C432.596 602.014 435.762 601.984 437.695 600.012C439.629 598.041 439.598 594.875 437.627 592.941L405.501 561.43ZM409 771.952L407 564.952L397 565.048L399 772.048L409 771.952Z" fill="#82D1F5"/>
<path d="M585.508 899.364V943H576.282V908.121H576.026L566.033 914.385V906.203L576.836 899.364H585.508ZM611.816 943.597C608.805 943.597 606.12 943.043 603.762 941.935C601.419 940.827 599.558 939.3 598.18 937.354C596.802 935.408 596.085 933.178 596.028 930.663H604.977C605.076 932.354 605.786 933.724 607.107 934.776C608.428 935.827 609.998 936.352 611.816 936.352C613.265 936.352 614.544 936.033 615.651 935.393C616.774 934.74 617.647 933.838 618.272 932.688C618.911 931.523 619.231 930.187 619.231 928.682C619.231 927.148 618.904 925.798 618.251 924.634C617.612 923.469 616.724 922.56 615.588 921.906C614.451 921.253 613.151 920.919 611.688 920.905C610.41 920.905 609.167 921.168 607.96 921.693C606.767 922.219 605.836 922.936 605.169 923.845L596.965 922.375L599.032 899.364H625.708V906.906H606.639L605.509 917.837H605.765C606.532 916.757 607.69 915.862 609.238 915.152C610.786 914.442 612.519 914.087 614.437 914.087C617.065 914.087 619.409 914.705 621.468 915.94C623.528 917.176 625.154 918.874 626.347 921.033C627.541 923.178 628.13 925.649 628.116 928.447C628.13 931.388 627.448 934.001 626.07 936.288C624.707 938.561 622.796 940.351 620.339 941.658C617.896 942.95 615.055 943.597 611.816 943.597Z" fill="#006CA9"/>
<path d="M671.189 177.364V221H661.963V186.121H661.708L651.715 192.385V184.203L662.517 177.364H671.189ZM698.67 221.959C695.005 221.945 691.852 221.043 689.21 219.253C686.582 217.463 684.558 214.871 683.137 211.476C681.731 208.081 681.035 203.997 681.049 199.224C681.049 194.466 681.752 190.411 683.158 187.058C684.579 183.706 686.603 181.156 689.231 179.409C691.873 177.648 695.019 176.767 698.67 176.767C702.32 176.767 705.46 177.648 708.087 179.409C710.729 181.17 712.761 183.727 714.181 187.08C715.602 190.418 716.305 194.466 716.29 199.224C716.29 204.011 715.58 208.102 714.16 211.497C712.754 214.892 710.737 217.484 708.109 219.274C705.481 221.064 702.335 221.959 698.67 221.959ZM698.67 214.31C701.17 214.31 703.165 213.053 704.657 210.538C706.148 208.024 706.887 204.253 706.873 199.224C706.873 195.915 706.532 193.159 705.85 190.957C705.183 188.756 704.231 187.101 702.995 185.993C701.773 184.885 700.332 184.331 698.67 184.331C696.184 184.331 694.195 185.574 692.704 188.06C691.212 190.545 690.46 194.267 690.445 199.224C690.445 202.577 690.779 205.375 691.447 207.619C692.129 209.849 693.087 211.526 694.323 212.648C695.559 213.756 697.008 214.31 698.67 214.31Z" fill="#FA8F00"/>
<path d="M207.138 554.597C204.127 554.597 201.442 554.043 199.085 552.935C196.741 551.827 194.88 550.3 193.502 548.354C192.124 546.408 191.407 544.178 191.35 541.663H200.299C200.398 543.354 201.109 544.724 202.43 545.776C203.751 546.827 205.32 547.352 207.138 547.352C208.587 547.352 209.866 547.033 210.974 546.393C212.096 545.74 212.969 544.838 213.594 543.688C214.234 542.523 214.553 541.187 214.553 539.682C214.553 538.148 214.227 536.798 213.573 535.634C212.934 534.469 212.046 533.56 210.91 532.906C209.773 532.253 208.474 531.919 207.011 531.905C205.732 531.905 204.489 532.168 203.282 532.693C202.089 533.219 201.158 533.936 200.491 534.845L192.288 533.375L194.354 510.364H221.031V517.906H201.961L200.832 528.837H201.087C201.854 527.757 203.012 526.862 204.56 526.152C206.109 525.442 207.842 525.087 209.759 525.087C212.387 525.087 214.731 525.705 216.79 526.94C218.85 528.176 220.477 529.874 221.67 532.033C222.863 534.178 223.452 536.649 223.438 539.447C223.452 542.388 222.771 545.001 221.393 547.288C220.029 549.561 218.119 551.351 215.661 552.658C213.218 553.95 210.377 554.597 207.138 554.597Z" fill="#737370"/>
<path d="M804.138 554.597C801.127 554.597 798.442 554.043 796.085 552.935C793.741 551.827 791.88 550.3 790.502 548.354C789.124 546.408 788.407 544.178 788.35 541.663H797.299C797.398 543.354 798.109 544.724 799.43 545.776C800.751 546.827 802.32 547.352 804.138 547.352C805.587 547.352 806.866 547.033 807.974 546.393C809.096 545.74 809.969 544.838 810.594 543.688C811.234 542.523 811.553 541.187 811.553 539.682C811.553 538.148 811.227 536.798 810.573 535.634C809.934 534.469 809.046 533.56 807.91 532.906C806.773 532.253 805.474 531.919 804.011 531.905C802.732 531.905 801.489 532.168 800.282 532.693C799.089 533.219 798.158 533.936 797.491 534.845L789.288 533.375L791.354 510.364H818.031V517.906H798.961L797.832 528.837H798.087C798.854 527.757 800.012 526.862 801.56 526.152C803.109 525.442 804.842 525.087 806.759 525.087C809.387 525.087 811.731 525.705 813.79 526.94C815.85 528.176 817.477 529.874 818.67 532.033C819.863 534.178 820.452 536.649 820.438 539.447C820.452 542.388 819.771 545.001 818.393 547.288C817.029 549.561 815.119 551.351 812.661 552.658C810.218 553.95 807.377 554.597 804.138 554.597Z" fill="#737370"/>
<path d="M502.138 554.597C499.127 554.597 496.442 554.043 494.085 552.935C491.741 551.827 489.88 550.3 488.502 548.354C487.124 546.408 486.407 544.178 486.35 541.663H495.299C495.398 543.354 496.109 544.724 497.43 545.776C498.751 546.827 500.32 547.352 502.138 547.352C503.587 547.352 504.866 547.033 505.974 546.393C507.096 545.74 507.969 544.838 508.594 543.688C509.234 542.523 509.553 541.187 509.553 539.682C509.553 538.148 509.227 536.798 508.573 535.634C507.934 534.469 507.046 533.56 505.91 532.906C504.773 532.253 503.474 531.919 502.011 531.905C500.732 531.905 499.489 532.168 498.282 532.693C497.089 533.219 496.158 533.936 495.491 534.845L487.288 533.375L489.354 510.364H516.031V517.906H496.961L495.832 528.837H496.087C496.854 527.757 498.012 526.862 499.56 526.152C501.109 525.442 502.842 525.087 504.759 525.087C507.387 525.087 509.731 525.705 511.79 526.94C513.85 528.176 515.477 529.874 516.67 532.033C517.863 534.178 518.452 536.649 518.438 539.447C518.452 542.388 517.771 545.001 516.393 547.288C515.029 549.561 513.119 551.351 510.661 552.658C508.218 553.95 505.377 554.597 502.138 554.597Z" fill="#737370"/>
<path d="M234.277 440.247V432.683H263.702V440.247H234.277ZM234.277 454.395V446.831H263.702V454.395H234.277Z" fill="#737370"/>
<path d="M543.277 440.247V432.683H572.702V440.247H543.277ZM543.277 454.395V446.831H572.702V454.395H543.277Z" fill="#737370"/>
</svg>
